STARTFONT 2.1
COMMENT Recovered from ship.qfasl (MIT CADR System 46 serialized QFASL FONT object)
FONT MIT-CADR-QFASL-SHIP
SIZE 19 72 72
FONTBOUNDINGBOX 26 19 0 -9
STARTPROPERTIES 2
FONT_ASCENT 10
FONT_DESCENT 9
ENDPROPERTIES
CHARS 67
STARTCHAR C0000
ENCODING -1 0
SWIDTH 1000 0
DWIDTH 19 0
BBX 19 19 7 -9
BITMAP
000000
000000
000000
000000
000000
000000
000000
200000
700000
F80000
700000
200000
000000
000000
000000
000000
000000
000000
000000
ENDCHAR
STARTCHAR C0001
ENCODING -1 1
SWIDTH 1000 0
DWIDTH 19 0
BBX 19 19 0 -9
BITMAP
004000
004000
004000
00E000
00E000
01F000
03F800
07FC00
1FFF00
FFFFE0
1FFF00
07FC00
03F800
01F000
00E000
00E000
004000
004000
004000
ENDCHAR
STARTCHAR C0020
ENCODING -1 32
SWIDTH 1000 0
DWIDTH 19 0
BBX 19 19 0 -9
BITMAP
000000
000000
000000
000000
000000
000000
000000
000000
000000
000000
000000
000000
000000
000000
000000
000000
000000
000000
000000
ENDCHAR
STARTCHAR C0040
ENCODING -1 64
SWIDTH 1000 0
DWIDTH 19 0
BBX 19 19 0 -9
BITMAP
000000
000000
000000
F80000
460000
210000
FFFC00
800300
400080
400040
400080
800300
FFFC00
210000
460000
F80000
000000
000000
000000
ENDCHAR
STARTCHAR C0041
ENCODING -1 65
SWIDTH 1000 0
DWIDTH 19 0
BBX 19 19 0 -9
BITMAP
000000
040000
0B0000
090000
288000
1E8000
11E000
081E00
080180
100040
E00040
1E0020
21E040
421F80
FC0000
000000
000000
000000
000000
ENDCHAR
STARTCHAR C0042
ENCODING -1 66
SWIDTH 1000 0
DWIDTH 19 0
BBX 19 19 0 -9
BITMAP
010000
018000
016000
049000
068800
058800
047000
0C1800
300600
300180
0C0040
B30040
C1C020
333020
0C0DE0
000300
000000
000000
000000
ENDCHAR
STARTCHAR C0043
ENCODING -1 67
SWIDTH 1000 0
DWIDTH 19 0
BBX 19 19 0 -9
BITMAP
000000
00C000
00A000
065800
054800
028800
026800
7C1800
300C00
080200
B60180
610080
10C040
0F2040
001840
000780
000000
000000
000000
ENDCHAR
STARTCHAR C0044
ENCODING -1 68
SWIDTH 1000 0
DWIDTH 19 0
BBX 19 19 0 -9
BITMAP
008000
00C000
02A000
039000
029000
044800
382800
101800
F80800
440400
220200
190100
078100
004080
002080
001880
000780
000000
000000
ENDCHAR
STARTCHAR C0045
ENCODING -1 69
SWIDTH 1000 0
DWIDTH 19 0
BBX 19 19 0 -9
BITMAP
000000
001000
011800
019800
315400
1E2200
102200
881400
7C0C00
420800
220400
1D0200
008200
008100
004080
002080
002080
001880
000700
ENDCHAR
STARTCHAR C0046
ENCODING -1 70
SWIDTH 1000 0
DWIDTH 19 0
BBX 19 19 0 -9
BITMAP
000000
001800
009800
00D400
10A400
1F2200
C81200
B81400
440800
440800
3E0400
020400
010200
010200
008100
008100
004100
003200
000E00
ENDCHAR
STARTCHAR C0047
ENCODING -1 71
SWIDTH 1000 0
DWIDTH 19 0
BBX 19 19 1 -9
BITMAP
000400
004C00
105400
CCA400
BB2400
882400
482800
641000
1C1000
041000
041000
020800
020800
020800
020800
010800
010800
00D000
002000
ENDCHAR
STARTCHAR C0048
ENCODING -1 72
SWIDTH 1000 0
DWIDTH 19 0
BBX 19 19 3 -9
BITMAP
98C800
D75800
B06800
904800
904800
505000
505000
306000
104000
104000
104000
104000
104000
104000
088000
088000
050000
020000
000000
ENDCHAR
STARTCHAR C0049
ENCODING -1 73
SWIDTH 1000 0
DWIDTH 19 0
BBX 19 19 4 -9
BITMAP
800000
C80000
A82000
94CC00
937400
904400
504800
209800
20E000
208000
208000
410000
410000
410000
410000
420000
420000
2C0000
100000
ENDCHAR
STARTCHAR C004A
ENCODING -1 74
SWIDTH 1000 0
DWIDTH 19 0
BBX 19 19 3 -9
BITMAP
000000
180000
190000
2B0000
250800
44F800
481300
281D00
102200
102200
207C00
204000
408000
408000
810000
810000
820000
4C0000
700000
ENDCHAR
STARTCHAR C004B
ENCODING -1 75
SWIDTH 1000 0
DWIDTH 19 0
BBX 19 19 2 -9
BITMAP
000000
040000
0C4000
0CC000
154600
223C00
220400
140880
181F00
082100
102200
205C00
208000
408000
810000
820000
820000
8C0000
700000
ENDCHAR
STARTCHAR C004C
ENCODING -1 76
SWIDTH 1000 0
DWIDTH 19 0
BBX 19 19 2 -9
BITMAP
008000
018000
02A000
04E000
04A000
091000
0A0E00
0C0400
080F80
101100
202200
404C00
40F000
810000
820000
8C0000
F00000
000000
000000
ENDCHAR
STARTCHAR C004D
ENCODING -1 77
SWIDTH 1000 0
DWIDTH 19 0
BBX 19 19 1 -9
BITMAP
000000
00C000
014000
069800
04A800
045000
059000
060F80
0C0300
100400
601B40
402180
80C200
813C00
860000
780000
000000
000000
000000
ENDCHAR
STARTCHAR C004E
ENCODING -1 78
SWIDTH 1000 0
DWIDTH 19 0
BBX 19 19 0 -9
BITMAP
001800
006800
019000
021600
021C00
02E400
018400
060200
1801C0
200180
400600
4019A0
8060C0
81B300
F60C00
180000
000000
000000
000000
ENDCHAR
STARTCHAR C004F
ENCODING -1 79
SWIDTH 1000 0
DWIDTH 19 0
BBX 19 19 0 -9
BITMAP
000000
000400
001A00
001200
002280
002F00
00F100
0F0200
300200
400100
4000E0
800F00
40F080
3F0840
0007E0
000000
000000
000000
000000
ENDCHAR
STARTCHAR C0050
ENCODING -1 80
SWIDTH 1000 0
DWIDTH 19 0
BBX 19 19 1 -9
BITMAP
000000
000000
000000
0007C0
001880
002100
0FFFC0
300040
400080
800080
400080
300040
0FFFC0
002100
001880
0007C0
000000
000000
000000
ENDCHAR
STARTCHAR C0051
ENCODING -1 81
SWIDTH 1000 0
DWIDTH 19 0
BBX 19 19 0 -9
BITMAP
000000
000000
000000
000000
0007E0
3F0840
40F080
800F00
4000E0
400100
300200
0F0200
00F100
002F00
002280
001200
001A00
000400
000000
ENDCHAR
STARTCHAR C0052
ENCODING -1 82
SWIDTH 1000 0
DWIDTH 19 0
BBX 19 19 0 -9
BITMAP
000000
000000
000000
180000
F60600
819980
807060
4019A0
400600
300180
0C0180
030600
01C400
023400
022C00
012400
00D000
003000
001000
ENDCHAR
STARTCHAR C0053
ENCODING -1 83
SWIDTH 1000 0
DWIDTH 19 0
BBX 19 19 1 -9
BITMAP
000000
000000
000000
780000
860000
813C00
80C200
402180
601B40
100400
0C0300
060F80
059000
045000
04A800
069800
014000
00C000
000000
ENDCHAR
STARTCHAR C0054
ENCODING -1 84
SWIDTH 1000 0
DWIDTH 19 0
BBX 19 19 2 -9
BITMAP
000000
000000
F00000
8C0000
820000
810000
40F000
404C00
202200
101100
080F80
0C0400
0A0E00
091000
04A000
04E000
02A000
018000
008000
ENDCHAR
STARTCHAR C0055
ENCODING -1 85
SWIDTH 1000 0
DWIDTH 19 0
BBX 19 19 2 -9
BITMAP
700000
8C0000
820000
820000
810000
408000
208000
205C00
102200
082100
181F00
140880
220400
223C00
154600
0CC000
0C4000
040000
000000
ENDCHAR
STARTCHAR C0056
ENCODING -1 86
SWIDTH 1000 0
DWIDTH 19 0
BBX 19 19 3 -9
BITMAP
700000
4C0000
820000
810000
810000
408000
408000
204000
207C00
102200
102200
281D00
485300
44B800
250800
2B0000
190000
100000
000000
ENDCHAR
STARTCHAR C0057
ENCODING -1 87
SWIDTH 1000 0
DWIDTH 19 0
BBX 19 19 4 -9
BITMAP
100000
2C0000
420000
420000
410000
410000
410000
410000
208000
208000
20E000
209800
504800
904400
937400
94CC00
A82000
C80000
800000
ENDCHAR
STARTCHAR C0058
ENCODING -1 88
SWIDTH 1000 0
DWIDTH 19 0
BBX 19 19 3 -9
BITMAP
000000
020000
050000
088000
088000
104000
104000
104000
104000
104000
104000
306000
505000
505000
904800
904800
B06800
D75800
98C800
ENDCHAR
STARTCHAR C0059
ENCODING -1 89
SWIDTH 1000 0
DWIDTH 19 0
BBX 19 19 1 -9
BITMAP
002000
00D000
010800
010800
020800
020800
020800
020800
041000
041000
1C1000
641000
482800
882400
BB2400
CCA400
105400
004C00
000400
ENDCHAR
STARTCHAR C005A
ENCODING -1 90
SWIDTH 1000 0
DWIDTH 19 0
BBX 19 19 0 -9
BITMAP
000E00
003200
004100
008100
008100
010200
010200
020400
3E0400
440800
440800
B81400
CA1200
1D2200
10A400
00D400
009800
000800
000000
ENDCHAR
STARTCHAR C005B
ENCODING -1 91
SWIDTH 1000 0
DWIDTH 19 0
BBX 19 19 0 -9
BITMAP
000700
001880
002080
002080
004080
008100
008200
1D0200
220400
420800
7C0C00
881400
102200
1E2200
315400
019800
011800
001000
000000
ENDCHAR
STARTCHAR C005C
ENCODING -1 92
SWIDTH 1000 0
DWIDTH 19 0
BBX 19 19 0 -9
BITMAP
000000
000000
000780
001880
002080
004080
078100
190100
220200
440400
F80800
101800
382800
044800
029000
039000
02A000
00C000
008000
ENDCHAR
STARTCHAR C005D
ENCODING -1 93
SWIDTH 1000 0
DWIDTH 19 0
BBX 19 19 0 -9
BITMAP
000000
000000
000000
000780
001840
0F2040
10C040
610080
B60180
080200
300C00
7C1800
026800
028800
054800
065800
00A000
00C000
000000
ENDCHAR
STARTCHAR C005E
ENCODING -1 94
SWIDTH 1000 0
DWIDTH 19 0
BBX 19 19 0 -9
BITMAP
000000
000000
000000
000300
060DE0
19B020
60C020
B30040
0C0040
300080
700300
080C00
043000
04E800
070800
0D0800
013000
02C000
030000
ENDCHAR
STARTCHAR C005F
ENCODING -1 95
SWIDTH 1000 0
DWIDTH 19 0
BBX 19 19 0 -9
BITMAP
000000
000000
000000
000000
FC0000
421F80
21E040
1E0020
E00040
100040
080180
081E00
11E000
1E8000
288000
090000
0B0000
040000
000000
ENDCHAR
STARTCHAR C0060
ENCODING -1 96
SWIDTH 1000 0
DWIDTH 19 0
BBX 19 19 0 -9
BITMAP
000000
000000
000000
060000
090000
108000
E04000
802000
801FC0
FFFFC0
801FC0
802000
E04000
108000
090000
060000
000000
000000
000000
ENDCHAR
STARTCHAR C0061
ENCODING -1 97
SWIDTH 1000 0
DWIDTH 19 0
BBX 19 19 0 -9
BITMAP
000000
000000
000000
038000
2C4000
704000
402000
601000
9F1800
81FF80
E03FC0
2033C0
206000
118000
1E0000
000000
000000
000000
000000
ENDCHAR
STARTCHAR C0062
ENCODING -1 98
SWIDTH 1000 0
DWIDTH 19 0
BBX 19 19 1 -9
BITMAP
000000
000000
018000
0E4000
184000
202000
202000
582000
862000
81A000
407000
40FC00
431F00
3C0780
000100
000000
000000
000000
000000
ENDCHAR
STARTCHAR C0063
ENCODING -1 99
SWIDTH 1000 0
DWIDTH 19 0
BBX 19 19 0 -9
BITMAP
000000
080000
17C000
202000
702000
982000
842000
422000
41A000
407000
40F000
637C00
1C0E00
000780
000180
000000
000000
000000
000000
ENDCHAR
STARTCHAR C0064
ENCODING -1 100
SWIDTH 1000 0
DWIDTH 19 0
BBX 19 19 1 -9
BITMAP
000000
040000
0BC000
102000
302000
482000
842000
422000
412000
40A000
406000
3FF000
003800
001C00
000E00
000600
000000
000000
000000
ENDCHAR
STARTCHAR C0065
ENCODING -1 101
SWIDTH 1000 0
DWIDTH 19 0
BBX 19 19 1 -9
BITMAP
020000
0D8000
307000
C80800
880800
440800
421000
811000
811000
80E000
7CE000
03E000
003000
003800
001800
000C00
000C00
000000
000000
ENDCHAR
STARTCHAR C0066
ENCODING -1 102
SWIDTH 1000 0
DWIDTH 19 0
BBX 19 19 2 -9
BITMAP
000000
018000
06C000
383000
C41000
441000
421000
821000
812000
612000
18A000
07C000
00E000
006000
007000
003000
003800
001000
000000
ENDCHAR
STARTCHAR C0067
ENCODING -1 103
SWIDTH 1000 0
DWIDTH 19 0
BBX 19 19 3 -9
BITMAP
010000
3F0000
64C000
242000
441000
441000
861000
822000
822000
634000
1F8000
070000
078000
038000
038000
03C000
01C000
018000
000000
ENDCHAR
STARTCHAR C0068
ENCODING -1 104
SWIDTH 1000 0
DWIDTH 19 0
BBX 19 19 3 -9
BITMAP
1FC000
124000
124000
222000
421000
820800
820800
421000
222000
124000
0A8000
070000
070000
070000
070000
070000
070000
070000
000000
ENDCHAR
STARTCHAR C0069
ENCODING -1 105
SWIDTH 1000 0
DWIDTH 19 0
BBX 19 19 4 -9
BITMAP
080000
0FC000
326000
424000
822000
822000
861000
441000
441000
2C6000
1F8000
0E0000
1E0000
1C0000
1C0000
3C0000
380000
180000
000000
ENDCHAR
STARTCHAR C006A
ENCODING -1 106
SWIDTH 1000 0
DWIDTH 19 0
BBX 19 19 4 -9
BITMAP
000000
0C0000
1B0000
60E000
411800
411000
421000
420800
240800
243000
28C000
1F0000
380000
300000
700000
600000
E00000
400000
000000
ENDCHAR
STARTCHAR C006B
ENCODING -1 107
SWIDTH 1000 0
DWIDTH 19 0
BBX 19 19 4 -9
BITMAP
010000
06C000
383000
404C00
404400
408800
210800
220400
220400
1C0400
1CF800
1F0000
300000
700000
600000
C00000
C00000
000000
000000
ENDCHAR
STARTCHAR C006C
ENCODING -1 108
SWIDTH 1000 0
DWIDTH 19 0
BBX 19 19 3 -9
BITMAP
000000
004000
07A000
081000
081800
082400
084200
088400
090400
0A0400
0C0400
1FF800
380000
700000
E00000
C00000
000000
000000
000000
ENDCHAR
STARTCHAR C006D
ENCODING -1 109
SWIDTH 1000 0
DWIDTH 19 0
BBX 19 19 2 -9
BITMAP
000000
000800
01F400
020200
020700
020C80
021080
022100
02C100
070100
078100
1F6300
381C00
F00000
C00000
000000
000000
000000
000000
ENDCHAR
STARTCHAR C006E
ENCODING -1 110
SWIDTH 1000 0
DWIDTH 19 0
BBX 19 19 1 -9
BITMAP
000000
000000
00C000
013800
010C00
020200
020200
020D00
023080
02C080
070100
1F8100
7C6100
F01E00
400000
000000
000000
000000
000000
ENDCHAR
STARTCHAR C006F
ENCODING -1 111
SWIDTH 1000 0
DWIDTH 19 0
BBX 19 19 1 -9
BITMAP
000000
000000
000000
007000
008D00
008380
010080
020180
063E40
7FE040
FF01C0
F30100
018100
006200
001E00
000000
000000
000000
000000
ENDCHAR
STARTCHAR C0070
ENCODING -1 112
SWIDTH 1000 0
DWIDTH 19 0
BBX 19 19 1 -9
BITMAP
000000
000000
000000
001800
002400
004200
0081C0
010040
FE0040
FFFFC0
FE0040
010040
0081C0
004200
002400
001800
000000
000000
000000
ENDCHAR
STARTCHAR C0071
ENCODING -1 113
SWIDTH 1000 0
DWIDTH 19 0
BBX 19 19 1 -9
BITMAP
000000
000000
000000
000000
001E00
006200
018100
F30100
FF01C0
7FE040
063E40
020180
010080
008380
008D00
007000
000000
000000
000000
ENDCHAR
STARTCHAR C0072
ENCODING -1 114
SWIDTH 1000 0
DWIDTH 19 0
BBX 19 19 1 -9
BITMAP
000000
000000
000000
000000
400000
F01E00
7C6100
1F8100
070100
02C080
023080
020D00
020200
020200
010C00
013800
00C000
000000
000000
ENDCHAR
STARTCHAR C0073
ENCODING -1 115
SWIDTH 1000 0
DWIDTH 19 0
BBX 19 19 2 -9
BITMAP
000000
000000
000000
000000
C00000
F00000
381C00
1F6300
078100
070100
02C100
022100
021080
020C80
020700
020200
01F400
000800
000000
ENDCHAR
STARTCHAR C0074
ENCODING -1 116
SWIDTH 1000 0
DWIDTH 19 0
BBX 19 19 3 -9
BITMAP
000000
000000
000000
C00000
E00000
700000
380000
1FF800
0C0400
0A0400
090400
088400
084200
082400
081800
081000
07A000
004000
000000
ENDCHAR
STARTCHAR C0075
ENCODING -1 117
SWIDTH 1000 0
DWIDTH 19 0
BBX 19 19 4 -9
BITMAP
000000
000000
C00000
C00000
600000
700000
300000
1F0000
1CF800
1C0400
220400
220400
210800
408800
404400
404C00
383000
06C000
010000
ENDCHAR
STARTCHAR C0076
ENCODING -1 118
SWIDTH 1000 0
DWIDTH 19 0
BBX 19 19 4 -9
BITMAP
000000
400000
E00000
600000
700000
300000
380000
1F0000
28C000
243000
240800
420800
421000
411000
411800
60E000
1B0000
0C0000
000000
ENDCHAR
STARTCHAR C0077
ENCODING -1 119
SWIDTH 1000 0
DWIDTH 19 0
BBX 19 19 4 -9
BITMAP
000000
180000
380000
3C0000
1C0000
1C0000
1E0000
0E0000
1F8000
2C6000
441000
441000
861000
822000
822000
424000
326000
0FC000
080000
ENDCHAR
STARTCHAR C0078
ENCODING -1 120
SWIDTH 1000 0
DWIDTH 19 0
BBX 19 19 3 -9
BITMAP
000000
070000
070000
070000
070000
070000
070000
070000
0A8000
124000
222000
421000
820800
820800
421000
222000
124000
124000
1FC000
ENDCHAR
STARTCHAR C0079
ENCODING -1 121
SWIDTH 1000 0
DWIDTH 19 0
BBX 19 19 3 -9
BITMAP
000000
018000
01C000
03C000
038000
038000
078000
070000
1F8000
634000
822000
822000
861000
441000
441000
242000
64C000
3F0000
010000
ENDCHAR
STARTCHAR C007A
ENCODING -1 122
SWIDTH 1000 0
DWIDTH 19 0
BBX 19 19 2 -9
BITMAP
000000
001000
003800
003000
007000
006000
00E000
07C000
18A000
612000
812000
821000
421000
441000
C41000
383000
06C000
018000
000000
ENDCHAR
STARTCHAR C007B
ENCODING -1 123
SWIDTH 1000 0
DWIDTH 19 0
BBX 19 19 1 -9
BITMAP
000000
000000
000C00
000C00
001800
003800
003000
03E000
7CE000
80E000
811000
811000
421000
440800
880800
C80800
307000
0D8000
020000
ENDCHAR
STARTCHAR C007C
ENCODING -1 124
SWIDTH 1000 0
DWIDTH 19 0
BBX 19 19 1 -9
BITMAP
000000
000000
000000
000600
000E00
001C00
003800
3FF000
406000
40A000
412000
422000
842000
482000
302000
102000
0BC000
040000
000000
ENDCHAR
STARTCHAR C007D
ENCODING -1 125
SWIDTH 1000 0
DWIDTH 19 0
BBX 19 19 0 -9
BITMAP
000000
000000
000000
000000
000180
000780
1C0E00
637C00
40F000
407000
41A000
422000
842000
982000
702000
202000
17C000
080000
000000
ENDCHAR
STARTCHAR C007E
ENCODING -1 126
SWIDTH 1000 0
DWIDTH 19 0
BBX 19 19 1 -9
BITMAP
000000
000000
000000
000000
000100
3C0780
431F00
40FC00
407000
81A000
862000
582000
202000
202000
184000
0E4000
018000
000000
000000
ENDCHAR
STARTCHAR C007F
ENCODING -1 127
SWIDTH 1000 0
DWIDTH 19 0
BBX 19 19 0 -9
BITMAP
000000
000000
000000
000000
1E0000
118000
206000
2033C0
E03FC0
81FF80
9F1800
601000
402000
704000
2C4000
038000
000000
000000
000000
ENDCHAR
ENDFONT
